<?xml version="1.0" encoding="iso-8859-1"?>
<!-- Generator: Adobe Illustrator 19.0.0, SVG Export Plug-In . SVG Version: 6.00 Build 0)  -->
<svg version="1.1" id="Layer_1" xmlns="http://www.w3.org/2000/svg" xmlns:xlink="http://www.w3.org/1999/xlink" x="0px" y="0px"
	 viewBox="0 0 511.996 511.996" style="enable-background:new 0 0 511.996 511.996;" xml:space="preserve">
<g>
	<g>
		<path d="M471.841,26.171H194.95c-5.993,0-10.853,4.859-10.853,10.853v52.998c8.683,4.973,16.123,11.867,21.705,20.11V47.876
			h255.185v183.502H228.862c-32.812,20.373-31.563,19.828-35.795,21.53c1.506,0.264-14.501,0.174,278.773,0.174
			c5.993,0,10.853-4.859,10.853-10.853V37.023C482.693,31.03,477.834,26.171,471.841,26.171z"/>
	</g>
</g>
<g>
	<g>
		<path d="M99.064,5.644c-22.426,0-40.607,18.18-40.607,40.607c0.001,22.552,18.333,40.607,40.607,40.607
			c22.277,0,40.607-18.067,40.607-40.607C139.671,23.824,121.49,5.644,99.064,5.644z"/>
	</g>
</g>
<g>
	<g>
		<path d="M264.974,164.247c-5.707-9.192-17.785-12.02-26.981-6.311l-39.506,24.529v-36.527
			c-0.128-25.438-21.09-46.134-46.728-46.134h-40.781c0.179,0.175,0.339,0.374,0.47,0.596c0.518,0.877,0.535,1.962,0.045,2.855
			c-5.835,10.614-3.368,6.126-7.068,12.855c4.495,8.174,3.444,6.265,7.966,14.487c0.945,1.717,1.24,3.717,0.833,5.634
			l-12.642,59.548c-0.399,1.88-3.105,1.864-3.48-0.023c-1.396-7.03-10.621-53.496-11.829-59.577
			c-0.374-1.886-0.071-3.843,0.855-5.528l7.98-14.514l-7.083-12.884c-0.49-0.893-0.474-1.978,0.045-2.855
			c0.131-0.222,0.29-0.421,0.47-0.596c-14.639,0-26.892,0-41.172,0c-25.439,0-46.239,20.695-46.367,46.232v143.944
			c0,10.822,8.772,19.594,19.593,19.594s19.593-8.772,19.593-19.593V146.134c0.011-2.144,1.755-3.874,3.898-3.867
			c2.143,0.006,3.876,1.745,3.876,3.888l0.009,226.706c5.112-21.575,24.124-37.822,47.024-38.718V287.57h10.151v47.192
			c23.913,3.912,42.221,24.709,42.221,49.711c0,10.657-3.335,20.544-9.004,28.694c3.452,0,7.752-0.125,13.807,1.106
			c0-173.31-0.417-71.268-0.427-268.215c0-2.359,1.909-4.274,4.269-4.281c2.36-0.007,4.28,1.896,4.293,4.256
			c0,0.001,0,0.002,0,0.002v71.657c0,15.393,16.959,24.698,29.928,16.646l69.434-43.111
			C267.856,185.52,270.682,173.439,264.974,164.247z"/>
	</g>
</g>
<g>
	<g>
		<path d="M263.934,102.478l4.213-4.213c3.179-3.179,3.179-8.332,0-11.511c-3.18-3.179-8.332-3.179-11.512,0l-4.212,4.212
			l-4.212-4.212c-3.18-3.179-8.332-3.179-11.512,0c-3.179,3.178-3.179,8.332,0,11.511l4.213,4.213l-4.213,4.213
			c-3.179,3.179-3.179,8.332,0,11.511c3.18,3.179,8.332,3.179,11.512,0l4.212-4.212l4.212,4.212c3.18,3.179,8.332,3.179,11.512,0
			c3.179-3.179,3.179-8.332,0-11.511L263.934,102.478z"/>
	</g>
</g>
<g>
	<g>
		<path d="M424.274,89.035l4.213-4.213c3.179-3.179,3.179-8.332,0-11.511c-3.18-3.179-8.332-3.179-11.512,0l-4.212,4.213
			l-4.213-4.213c-3.179-3.179-8.332-3.179-11.512,0c-3.179,3.179-3.179,8.332,0,11.511l4.213,4.213l-4.213,4.213
			c-3.178,3.179-3.178,8.332,0,11.511c3.18,3.179,8.332,3.179,11.512,0l4.213-4.212l4.212,4.212c3.18,3.179,8.332,3.179,11.512,0
			c3.179-3.179,3.179-8.332,0-11.511L424.274,89.035z"/>
	</g>
</g>
<g>
	<g>
		<path d="M399.614,192.127c-0.715-4.437-4.888-7.448-9.333-6.738c-29.408,4.75-43.626,0.262-55.512-39.859
			C320.026,95.775,283.83,98.358,282.3,98.496c-4.478,0.392-7.79,4.341-7.397,8.819c0.394,4.478,4.346,7.791,8.82,7.397
			c0.24-0.019,24.432-1.699,35.437,35.444c13.199,44.547,32.493,57.96,73.716,51.304
			C397.314,200.744,400.33,196.565,399.614,192.127z"/>
	</g>
</g>
<g>
	<g>
		<circle cx="398.619" cy="159.209" r="13.597"/>
	</g>
</g>
<g>
	<g>
		<path d="M100.139,350.624c-20.305-2.495-38.256,13.354-38.256,33.848c0,11.459,5.725,22.287,15.683,28.694
			c5.314,3.418,11.632,5.409,18.419,5.409c18.232,0,33.143-14.322,34.058-32.347C130.96,368.079,117.65,352.773,100.139,350.624z"/>
	</g>
</g>
<g>
	<g>
		<path d="M262.391,350.37c-18.824,0-34.102,15.256-34.102,34.102c0,18.845,15.276,34.102,34.102,34.102
			c18.707,0,34.102-15.158,34.102-34.102C296.493,365.535,281.1,350.37,262.391,350.37z"/>
	</g>
</g>
<g>
	<g>
		<path d="M428.797,350.37c-18.739,0-34.102,15.187-34.102,34.102c0,18.93,15.381,34.102,34.102,34.102
			c18.815,0,34.102-15.243,34.102-34.102C462.899,365.63,447.634,350.37,428.797,350.37z"/>
	</g>
</g>
<g>
	<g>
		<path d="M472.965,429.444c-76.044,0-10.518,0-88.337,0c-21.476,0-38.928,17.541-39.035,38.744
			c-0.107-21.308-17.65-38.744-39.035-38.744c-87.1,0-85.573,0-88.337,0c-21.392,0-38.927,17.41-39.035,38.744
			c-0.108-21.449-17.768-38.744-39.035-38.744c-2.763,0-85.573,0-88.337,0c-21.289,0-38.927,17.32-39.035,38.744v38.159h32.815
			l0.189-37.614c0.027-5.075,6.622-4.545,6.622-0.363c0,13.378,0,24.574,0,37.978h87.157c0-0.52-0.038-38.133,0.067-38.643
			c0.777-3.792,6.535-3.362,6.553,0.65c0.116,22.996,0.076,15.048,0.191,37.993c8.634,0,58.414,0,65.628,0l0.191-37.993
			c0.019-4.368,6.62-4.31,6.62,0.017v37.978c11.668,0,85.06,0,87.157,0v-37.977c0-4.236,6.597-4.629,6.622,0.363l0.188,37.614
			c7.68,0,57.442,0,65.627,0c0.101-20.112,0.089-17.716,0.191-37.993c0.026-4.318,6.62-4.427,6.62,0.017v37.978
			c2.221,0,75.533,0,87.157,0v-37.977c0-4.412,6.601-4.263,6.62-0.017c0.099,19.758,0.09,17.92,0.191,37.993h32.813v-38.159
			C511.893,446.829,494.333,429.444,472.965,429.444z"/>
	</g>
</g>
<g>
</g>
<g>
</g>
<g>
</g>
<g>
</g>
<g>
</g>
<g>
</g>
<g>
</g>
<g>
</g>
<g>
</g>
<g>
</g>
<g>
</g>
<g>
</g>
<g>
</g>
<g>
</g>
<g>
</g>
</svg>
